<svg width="20" height="20" viewBox="0 0 20 20" fill="none" xmlns="http://www.w3.org/2000/svg">
<g clip-path="url(#clip0_91_144)">
<path d="M2.02 20C1.46 20 0.983333 19.8033 0.59 19.41C0.196667 19.0167 0 18.5404 0 17.9813V2.01875C0 1.46042 0.196667 0.984167 0.59 0.59C0.983333 0.196667 1.46 0 2.02 0H17.9813C18.5396 0 19.0158 0.196667 19.41 0.59C19.8033 0.983333 20 1.46 20 2.02V17.9813C20 18.5396 19.8033 19.0158 19.41 19.41C19.0167 19.8033 18.5404 20 17.9813 20H2.02ZM15.705 18.75H17.98C18.205 18.75 18.3896 18.6779 18.5337 18.5337C18.6779 18.3896 18.75 18.2054 18.75 17.9813V15.705L15.705 18.75ZM1.9525 18.75H5.0275L8.7775 15H10.3275L6.5775 18.75H9.58625L13.3362 15H14.8863L11.1363 18.75H14.1537L17.9037 15H18.75V2.02C18.75 1.795 18.6779 1.61042 18.5337 1.46625C18.3896 1.32208 18.2054 1.25 17.9813 1.25H2.01875C1.79458 1.25 1.61042 1.32208 1.46625 1.46625C1.32208 1.61042 1.25 1.795 1.25 2.02V17.9L4.15125 15H5.70125L1.9525 18.75ZM8.34375 7.86125L4.98125 11.1925C4.86458 11.3092 4.72625 11.3646 4.56625 11.3587C4.40708 11.3537 4.26667 11.29 4.145 11.1675C4.0275 11.0508 3.96875 10.9075 3.96875 10.7375C3.96875 10.5675 4.02708 10.4242 4.14375 10.3075L7.6375 6.815C7.83917 6.6125 8.07458 6.51125 8.34375 6.51125C8.61292 6.51125 8.84875 6.6125 9.05125 6.815L10.8438 8.60875L15.0187 4.43375C15.1354 4.31625 15.2779 4.26 15.4463 4.265C15.6146 4.27 15.7592 4.33375 15.88 4.45625C15.9967 4.57292 16.055 4.7125 16.055 4.875C16.055 5.0375 15.9967 5.17667 15.88 5.2925L11.5513 9.65375C11.3488 9.85625 11.1129 9.9575 10.8438 9.9575C10.5746 9.9575 10.3392 9.85625 10.1375 9.65375L8.34375 7.86125ZM1.25 17.98V1.25V18.75V17.98Z" fill="#005FB1" stroke="#005FB1"/>
</g>
<defs>
<clipPath id="clip0_91_144">
<rect width="20" height="20" fill="white"/>
</clipPath>
</defs>
</svg>
