<svg width="24" height="23" viewBox="0 0 24 23" fill="none" xmlns="http://www.w3.org/2000/svg">
<path d="M4.17921 17.788C3.82875 17.5883 3.55715 17.3209 3.3644 16.9855C3.17164 16.6501 3.07527 16.2734 3.07527 15.8553V10.6289L0.551971 9.18625C0.359219 9.07737 0.219036 8.94127 0.131422 8.77794C0.0438072 8.61462 0 8.43315 0 8.23353C0 8.03391 0.0438072 7.85244 0.131422 7.68912C0.219036 7.5258 0.359219 7.38969 0.551971 7.28081L9.43608 2.27222C9.59378 2.18149 9.75605 2.11325 9.92286 2.06752C10.0897 2.02179 10.2604 1.99929 10.4349 2.00002C10.6094 2.00074 10.7804 2.02361 10.948 2.06861C11.1155 2.11362 11.2774 2.18149 11.4337 2.27222L21.448 7.9341C21.6232 8.02484 21.7592 8.15659 21.856 8.32935C21.9527 8.50211 22.0007 8.68793 22 8.88682V15.8553C22 16.1638 21.8991 16.4226 21.6972 16.6316C21.4953 16.8407 21.2458 16.9448 20.9486 16.9441C20.6514 16.9434 20.4019 16.8389 20.2 16.6305C19.9982 16.4222 19.8972 16.1638 19.8972 15.8553V9.43124L17.7945 10.6289V15.8553C17.7945 16.2727 17.6981 16.6494 17.5054 16.9855C17.3126 17.3216 17.041 17.5891 16.6906 17.788L11.4337 20.7278C11.276 20.8185 11.1141 20.8867 10.948 20.9325C10.7818 20.9782 10.6108 21.0007 10.4349 21C10.259 20.9993 10.0879 20.9768 9.92181 20.9325C9.7557 20.8882 9.59378 20.82 9.43608 20.7278L4.17921 17.788ZM10.4349 12.2622L17.6368 8.23353L10.4349 4.20488L3.23297 8.23353L10.4349 12.2622ZM10.4349 18.8223L15.6918 15.8825V11.7722L11.46 14.1948C11.3023 14.2856 11.1358 14.3538 10.9606 14.3995C10.7853 14.4453 10.6101 14.4678 10.4349 14.467C10.2597 14.4663 10.0844 14.4438 9.9092 14.3995C9.73397 14.3553 9.5675 14.287 9.40979 14.1948L5.17802 11.7722V15.8825L10.4349 18.8223Z" fill="#005FB1"/>
</svg>
