<svg width="24" height="24" viewBox="0 0 24 24" fill="none" xmlns="http://www.w3.org/2000/svg">
<path d="M11 22C10.182 22 9.4 21.67 7.837 21.01C3.946 19.366 2 18.543 2 17.16V7M11 22V11.355M11 22C11.34 22 11.646 21.943 12 21.828M20 7V11.5M18 18L18.906 17.095M5 12L7 13M16 4L6 9M22 18C22 16.9391 21.5786 15.9217 20.8284 15.1716C20.0783 14.4214 19.0609 14 18 14C16.9391 14 15.9217 14.4214 15.1716 15.1716C14.4214 15.9217 14 16.9391 14 18C14 19.0609 14.4214 20.0783 15.1716 20.8284C15.9217 21.5786 16.9391 22 18 22C19.0609 22 20.0783 21.5786 20.8284 20.8284C21.5786 20.0783 22 19.0609 22 18ZM7.326 9.691L4.405 8.278C2.802 7.502 2 7.114 2 6.5C2 5.886 2.802 5.498 4.405 4.722L7.325 3.309C9.13 2.436 10.03 2 11 2C11.97 2 12.871 2.436 14.674 3.309L17.595 4.722C19.198 5.498 20 5.886 20 6.5C20 7.114 19.198 7.502 17.595 8.278L14.675 9.691C12.87 10.564 11.97 11 11 11C10.03 11 9.129 10.564 7.326 9.691Z" stroke="#005FB1" stroke-width="2" stroke-linecap="round" stroke-linejoin="round"/>
</svg>
