<svg width="24" height="24" viewBox="0 0 24 24" fill="none" xmlns="http://www.w3.org/2000/svg">
<rect width="24" height="24" stroke="#005FB1"/>
<path d="M12 4.99999C12.0012 4.60002 11.9224 4.20385 11.7682 3.83479C11.614 3.46572 11.3876 3.13122 11.1023 2.85093C10.8169 2.57065 10.4784 2.35026 10.1067 2.20272C9.7349 2.05518 9.33738 1.98347 8.9375 1.9918C8.53761 2.00014 8.14343 2.08835 7.77814 2.25126C7.41285 2.41416 7.08382 2.64847 6.8104 2.94039C6.53699 3.23232 6.32471 3.57597 6.18605 3.95114C6.0474 4.32631 5.98516 4.72542 6.003 5.12499C5.4152 5.27613 4.8695 5.55904 4.40723 5.9523C3.94496 6.34556 3.57824 6.83886 3.33485 7.39484C3.09145 7.95081 2.97776 8.55488 3.00239 9.1613C3.02702 9.76772 3.18932 10.3606 3.477 10.895C2.97118 11.3059 2.57343 11.8342 2.31834 12.4339C2.06325 13.0336 1.95856 13.6866 2.01337 14.336C2.06817 14.9854 2.28082 15.6115 2.63281 16.16C2.9848 16.7085 3.46547 17.1626 4.033 17.483C3.96292 18.0252 4.00474 18.5761 4.15589 19.1015C4.30704 19.627 4.5643 20.1158 4.91179 20.5379C5.25928 20.9601 5.68961 21.3065 6.17622 21.5557C6.66283 21.805 7.19538 21.9519 7.74098 21.9873C8.28658 22.0227 8.83364 21.9459 9.34839 21.7616C9.86313 21.5773 10.3346 21.2894 10.7338 20.9157C11.1329 20.5421 11.4512 20.0906 11.669 19.5891C11.8868 19.0876 11.9994 18.5467 12 18V4.99999Z" stroke="#005FB1" stroke-width="2" stroke-linecap="round" stroke-linejoin="round"/>
<path d="M12 4.99999C11.9988 4.60002 12.0776 4.20385 12.2318 3.83479C12.386 3.46572 12.6124 3.13122 12.8977 2.85093C13.1831 2.57065 13.5216 2.35026 13.8933 2.20272C14.2651 2.05518 14.6626 1.98347 15.0625 1.9918C15.4624 2.00014 15.8566 2.08835 16.2219 2.25126C16.5872 2.41416 16.9162 2.64847 17.1896 2.94039C17.463 3.23232 17.6753 3.57597 17.814 3.95114C17.9526 4.32631 18.0148 4.72542 17.997 5.12499C18.5848 5.27613 19.1305 5.55904 19.5928 5.9523C20.055 6.34556 20.4218 6.83886 20.6652 7.39484C20.9086 7.95081 21.0222 8.55488 20.9976 9.1613C20.973 9.76772 20.8107 10.3606 20.523 10.895C21.0288 11.3059 21.4266 11.8342 21.6817 12.4339C21.9367 13.0336 22.0414 13.6866 21.9866 14.336C21.9318 14.9854 21.7192 15.6115 21.3672 16.16C21.0152 16.7085 20.5345 17.1626 19.967 17.483C20.0371 18.0252 19.9953 18.5761 19.8441 19.1015C19.693 19.627 19.4357 20.1158 19.0882 20.5379C18.7407 20.9601 18.3104 21.3065 17.8238 21.5557C17.3372 21.805 16.8046 21.9519 16.259 21.9873C15.7134 22.0227 15.1664 21.9459 14.6516 21.7616C14.1369 21.5773 13.6654 21.2894 13.2662 20.9157C12.8671 20.5421 12.5488 20.0906 12.331 19.5891C12.1133 19.0876 12.0006 18.5467 12 18V4.99999Z" stroke="#005FB1" stroke-width="2" stroke-linecap="round" stroke-linejoin="round"/>
<path d="M15 13C14.1604 12.7047 13.4273 12.167 12.8933 11.455C12.3593 10.743 12.0485 9.88867 12 9C11.9515 9.88867 11.6407 10.743 11.1067 11.455C10.5727 12.167 9.83956 12.7047 9 13M17.599 6.5C17.841 6.08059 17.9779 5.60882 17.998 5.125M6.003 5.125C6.02278 5.60873 6.15933 6.0805 6.401 6.5M3.477 10.896C3.65994 10.747 3.8557 10.6145 4.062 10.5M19.938 10.5C20.1443 10.6145 20.3401 10.747 20.523 10.896M6 18C5.31083 18.0003 4.63327 17.8226 4.033 17.484M19.967 17.484C19.3667 17.8226 18.6892 18.0003 18 18" stroke="#005FB1" stroke-width="2" stroke-linecap="round" stroke-linejoin="round"/>
</svg>
