<svg width="24" height="24" viewBox="0 0 24 24" fill="none" xmlns="http://www.w3.org/2000/svg">
<path d="M8.55556 18.5556C8.87037 18.5556 9.13444 18.4489 9.34778 18.2356C9.56111 18.0222 9.66741 17.7585 9.66667 17.4444C9.66593 17.1304 9.55926 16.8667 9.34667 16.6533C9.13407 16.44 8.87037 16.3333 8.55556 16.3333C8.24074 16.3333 7.97704 16.44 7.76444 16.6533C7.55185 16.8667 7.44518 17.1304 7.44444 17.4444C7.4437 17.7585 7.55037 18.0226 7.76444 18.2367C7.97852 18.4507 8.24222 18.557 8.55556 18.5556ZM8.55556 14.1111C8.87037 14.1111 9.13444 14.0044 9.34778 13.7911C9.56111 13.5778 9.66741 13.3141 9.66667 13C9.66593 12.6859 9.55926 12.4222 9.34667 12.2089C9.13407 11.9956 8.87037 11.8889 8.55556 11.8889C8.24074 11.8889 7.97704 11.9956 7.76444 12.2089C7.55185 12.4222 7.44518 12.6859 7.44444 13C7.4437 13.3141 7.55037 13.5781 7.76444 13.7922C7.97852 14.0063 8.24222 14.1126 8.55556 14.1111ZM8.55556 9.66667C8.87037 9.66667 9.13444 9.56 9.34778 9.34667C9.56111 9.13333 9.66741 8.86963 9.66667 8.55556C9.66593 8.24148 9.55926 7.97778 9.34667 7.76444C9.13407 7.55111 8.87037 7.44444 8.55556 7.44444C8.24074 7.44444 7.97704 7.55111 7.76444 7.76444C7.55185 7.97778 7.44518 8.24148 7.44444 8.55556C7.4437 8.86963 7.55037 9.1337 7.76444 9.34778C7.97852 9.56185 8.24222 9.66815 8.55556 9.66667ZM11.8889 18.5556H18.5556V16.3333H11.8889V18.5556ZM11.8889 14.1111H18.5556V11.8889H11.8889V14.1111ZM11.8889 9.66667H18.5556V7.44444H11.8889V9.66667ZM5.22222 23C4.61111 23 4.08815 22.7826 3.65333 22.3478C3.21852 21.913 3.00074 21.3896 3 20.7778V5.22222C3 4.61111 3.21778 4.08815 3.65333 3.65333C4.08889 3.21852 4.61185 3.00074 5.22222 3H20.7778C21.3889 3 21.9122 3.21778 22.3478 3.65333C22.7833 4.08889 23.0007 4.61185 23 5.22222V20.7778C23 21.3889 22.7826 21.9122 22.3478 22.3478C21.913 22.7833 21.3896 23.0007 20.7778 23H5.22222ZM5.22222 20.7778H20.7778V5.22222H5.22222V20.7778Z" fill="#005FB1"/>
</svg>
