<svg width="22" height="22" viewBox="0 0 22 22" fill="none" xmlns="http://www.w3.org/2000/svg">
<path d="M6.00003 13.5001C5.73481 13.5001 5.48046 13.6054 5.29292 13.7929C5.10539 13.9805 5.00003 14.2348 5.00003 14.5001V16.2821C3.71095 14.8246 2.99958 12.9458 3.00003 11.0001C2.99886 10.7059 3.01623 10.412 3.05203 10.1201C3.07111 9.98814 3.06363 9.85375 3.03002 9.72477C2.99642 9.59579 2.93737 9.47483 2.85634 9.369C2.77532 9.26317 2.67396 9.17461 2.55821 9.10852C2.44247 9.04242 2.31468 9.00013 2.18236 8.98414C2.05004 8.96814 1.91586 8.97875 1.7877 9.01536C1.65954 9.05196 1.53999 9.11382 1.43608 9.19728C1.33217 9.28075 1.24599 9.38415 1.18261 9.50141C1.11924 9.61866 1.07994 9.7474 1.06703 9.88006C1.02143 10.2516 0.999049 10.6257 1.00003 11.0001C1.00104 13.3863 1.85873 15.6929 3.41703 17.5001H2.00003C1.73481 17.5001 1.48046 17.6054 1.29292 17.7929C1.10539 17.9805 1.00003 18.2348 1.00003 18.5001C1.00003 18.7653 1.10539 19.0196 1.29292 19.2072C1.48046 19.3947 1.73481 19.5001 2.00003 19.5001H6.00003C6.15645 19.4982 6.31015 19.4589 6.44829 19.3855C6.58642 19.3121 6.70497 19.2067 6.79403 19.0781L6.83103 19.0351C6.83803 19.0251 6.83803 19.0131 6.84403 19.0031C6.89124 18.9224 6.92692 18.8356 6.95003 18.7451C6.96483 18.694 6.97553 18.6418 6.98203 18.5891C6.98503 18.5591 7.00003 18.5321 7.00003 18.5001V14.5001C7.00003 14.2348 6.89467 13.9805 6.70714 13.7929C6.5196 13.6054 6.26525 13.5001 6.00003 13.5001ZM7.50003 5.00006H5.71703C7.17479 3.71074 9.05391 2.99936 11 3.00006C11.2942 2.99921 11.5881 3.01692 11.88 3.05306C12.1435 3.08488 12.4089 3.01073 12.6177 2.84692C12.8265 2.68311 12.9617 2.44305 12.9935 2.17956C13.0254 1.91606 12.9512 1.65072 12.7874 1.4419C12.6236 1.23308 12.3835 1.09788 12.12 1.06606C11.7484 1.02078 11.3744 0.998741 11 1.00006C8.61378 1.00106 6.30721 1.85876 4.50003 3.41706V2.00006C4.50003 1.73484 4.39467 1.48048 4.20714 1.29295C4.0196 1.10541 3.76525 1.00006 3.50003 1.00006C3.23481 1.00006 2.98046 1.10541 2.79292 1.29295C2.60539 1.48048 2.50003 1.73484 2.50003 2.00006V6.00006C2.50652 6.06619 2.51958 6.13151 2.53903 6.19506C2.56388 6.31822 2.61171 6.4356 2.68003 6.54106L2.69203 6.55806C2.75843 6.65363 2.841 6.73688 2.93603 6.80406C2.94703 6.81206 2.95303 6.82406 2.96403 6.83206C2.97803 6.84206 2.99403 6.84506 3.00903 6.85306C3.06609 6.88696 3.12639 6.9151 3.18903 6.93706C3.27328 6.96628 3.36106 6.9841 3.45003 6.99006C3.46803 6.99006 3.48203 7.00006 3.50003 7.00006H7.50003C7.76525 7.00006 8.0196 6.8947 8.20714 6.70716C8.39467 6.51963 8.50003 6.26527 8.50003 6.00006C8.50003 5.73484 8.39467 5.48049 8.20714 5.29295C8.0196 5.10541 7.76525 5.00006 7.50003 5.00006ZM19.46 15.8041C19.4351 15.6812 19.3872 15.5642 19.319 15.4591L19.308 15.4421C19.2413 15.3464 19.1584 15.2631 19.063 15.1961C19.052 15.1881 19.047 15.1761 19.035 15.1681C19.025 15.1611 19.012 15.1611 19.001 15.1541C18.8737 15.0843 18.7348 15.0382 18.591 15.0181C18.559 15.0151 18.532 15.0001 18.5 15.0001H14.5C14.2348 15.0001 13.9805 15.1054 13.7929 15.2929C13.6054 15.4805 13.5 15.7348 13.5 16.0001C13.5 16.2653 13.6054 16.5196 13.7929 16.7072C13.9805 16.8947 14.2348 17.0001 14.5 17.0001H16.282C14.8245 18.2891 12.9458 19.0005 11 19.0001C10.7059 19.0006 10.4119 18.9825 10.12 18.9461C9.85654 18.9142 9.59119 18.9884 9.38237 19.1522C9.17355 19.316 9.03836 19.5561 9.00653 19.8196C8.9747 20.083 9.04885 20.3484 9.21267 20.5572C9.37648 20.766 9.61654 20.9012 9.88003 20.9331C10.2516 20.9787 10.6257 21.001 11 21.0001C13.3863 20.999 15.6929 20.1414 17.5 18.5831V20.0001C17.5 20.2653 17.6054 20.5196 17.7929 20.7072C17.9805 20.8947 18.2348 21.0001 18.5 21.0001C18.7652 21.0001 19.0196 20.8947 19.2071 20.7072C19.3947 20.5196 19.5 20.2653 19.5 20.0001V16.0001C19.4932 15.9339 19.4798 15.8676 19.46 15.8041ZM20 4.50006C20.2652 4.50006 20.5196 4.3947 20.7071 4.20716C20.8947 4.01963 21 3.76527 21 3.50006C21 3.23484 20.8947 2.98048 20.7071 2.79295C20.5196 2.60541 20.2652 2.50006 20 2.50006H16C15.9349 2.50674 15.8706 2.5198 15.808 2.53906L15.801 2.54006C15.68 2.56531 15.5647 2.61277 15.461 2.68006L15.441 2.69306C15.3458 2.75955 15.2629 2.84211 15.196 2.93706C15.188 2.94706 15.176 2.95306 15.168 2.96406C15.161 2.97406 15.161 2.98706 15.154 2.99806C15.0839 3.12629 15.0378 3.26626 15.018 3.41106C15.015 3.44106 15 3.46806 15 3.50006V7.50006C15 7.76527 15.1054 8.01963 15.2929 8.20716C15.4805 8.3947 15.7348 8.50006 16 8.50006C16.2652 8.50006 16.5196 8.3947 16.7071 8.20716C16.8947 8.01963 17 7.76527 17 7.50006V5.71706C18.2885 7.1753 18.9998 9.05411 19 11.0001C19.0009 11.2942 18.9832 11.5881 18.947 11.8801C18.9151 12.1433 18.9891 12.4084 19.1526 12.6171C19.3161 12.8258 19.5558 12.961 19.819 12.9931C19.8595 12.9979 19.9003 13.0002 19.941 13.0001C20.1852 12.9996 20.4207 12.9099 20.6032 12.7478C20.7858 12.5857 20.9027 12.3624 20.932 12.1201C20.978 11.7485 21.0007 11.3744 21 11.0001C20.999 8.61381 20.1413 6.30723 18.583 4.50006H20Z" fill="#005FB1" stroke="#005FB1" stroke-width="0.2"/>
</svg>
