<svg width="24" height="24" viewBox="0 0 24 24" fill="none" xmlns="http://www.w3.org/2000/svg">
<path d="M16.8078 14.772C17.2586 14.4641 17.7848 14.2851 18.3299 14.2541C18.8749 14.2232 19.4181 14.3416 19.9008 14.5966C20.3835 14.8515 20.7875 15.2333 21.0693 15.7009C21.351 16.1685 21.4999 16.7041 21.4998 17.25C21.4998 17.3307 21.4964 17.411 21.4898 17.491C20.2899 17.9102 19.0155 18.0733 17.7488 17.97C17.7449 16.8366 17.4185 15.7267 16.8078 14.772ZM16.8078 14.772C16.2653 13.9221 15.5175 13.2226 14.6333 12.7381C13.749 12.2536 12.757 11.9998 11.7488 12C10.7407 11.9999 9.74885 12.2539 8.86483 12.7384C7.98081 13.2228 7.23311 13.9222 6.69076 14.772M17.7478 17.969L17.7488 18C17.7488 18.2247 17.7364 18.4467 17.7118 18.666C15.8972 19.7073 13.8409 20.2535 11.7488 20.25C9.57876 20.25 7.54176 19.674 5.78576 18.666C5.75992 18.4346 5.74756 18.2019 5.74876 17.969M5.74876 17.969C4.4824 18.0758 3.20877 17.9133 2.00976 17.492C1.96412 16.9276 2.07916 16.3617 2.34159 15.8599C2.60403 15.3581 3.00313 14.9408 3.49277 14.6563C3.9824 14.3718 4.54256 14.2317 5.10848 14.2521C5.67441 14.2726 6.22297 14.4528 6.69076 14.772M5.74876 17.969C5.7523 16.8357 6.08034 15.7268 6.69076 14.772M14.7488 6C14.7488 6.79565 14.4327 7.55871 13.8701 8.12132C13.3075 8.68393 12.5444 9 11.7488 9C10.9531 9 10.1901 8.68393 9.62744 8.12132C9.06483 7.55871 8.74876 6.79565 8.74876 6C8.74876 5.20435 9.06483 4.44129 9.62744 3.87868C10.1901 3.31607 10.9531 3 11.7488 3C12.5444 3 13.3075 3.31607 13.8701 3.87868C14.4327 4.44129 14.7488 5.20435 14.7488 6ZM20.7488 9C20.7488 9.29547 20.6906 9.58806 20.5775 9.86104C20.4644 10.134 20.2987 10.3821 20.0898 10.591C19.8808 10.7999 19.6328 10.9657 19.3598 11.0787C19.0868 11.1918 18.7942 11.25 18.4988 11.25C18.2033 11.25 17.9107 11.1918 17.6377 11.0787C17.3647 10.9657 17.1167 10.7999 16.9078 10.591C16.6988 10.3821 16.5331 10.134 16.42 9.86104C16.307 9.58806 16.2488 9.29547 16.2488 9C16.2488 8.40326 16.4858 7.83097 16.9078 7.40901C17.3297 6.98705 17.902 6.75 18.4988 6.75C19.0955 6.75 19.6678 6.98705 20.0898 7.40901C20.5117 7.83097 20.7488 8.40326 20.7488 9ZM7.24876 9C7.24876 9.29547 7.19057 9.58806 7.07749 9.86104C6.96442 10.134 6.79869 10.3821 6.58975 10.591C6.38082 10.7999 6.13278 10.9657 5.8598 11.0787C5.58682 11.1918 5.29424 11.25 4.99876 11.25C4.70329 11.25 4.41071 11.1918 4.13773 11.0787C3.86474 10.9657 3.61671 10.7999 3.40777 10.591C3.19884 10.3821 3.03311 10.134 2.92004 9.86104C2.80696 9.58806 2.74876 9.29547 2.74876 9C2.74876 8.40326 2.98582 7.83097 3.40777 7.40901C3.82973 6.98705 4.40203 6.75 4.99876 6.75C5.5955 6.75 6.1678 6.98705 6.58975 7.40901C7.01171 7.83097 7.24876 8.40326 7.24876 9Z" stroke="#005FB1" stroke-width="2" stroke-linecap="round" stroke-linejoin="round"/>
</svg>
