<svg width="24" height="24" viewBox="0 0 24 24" fill="none" xmlns="http://www.w3.org/2000/svg">
<path d="M5.4 6.00001H18.6L17.75 5.00001H6.25L5.4 6.00001ZM10 12.75L12 11.75L14 12.75V8.00001H10V12.75ZM5 21C4.45 21 3.97933 20.8043 3.588 20.413C3.19667 20.0217 3.00067 19.5507 3 19V6.52501C3 6.29167 3.03767 6.06667 3.113 5.85001C3.18833 5.63334 3.30067 5.43334 3.45 5.25001L4.7 3.72501C4.88333 3.49167 5.11233 3.31234 5.387 3.18701C5.66167 3.06167 5.94933 2.99934 6.25 3.00001H17.75C18.05 3.00001 18.3377 3.06267 18.613 3.18801C18.8883 3.31334 19.1173 3.49234 19.3 3.72501L20.55 5.25001C20.7 5.43334 20.8127 5.63334 20.888 5.85001C20.9633 6.06667 21.0007 6.29167 21 6.52501V10C20.65 10 20.3043 10.025 19.963 10.075C19.6217 10.125 19.3007 10.225 19 10.375V8.00001H16V13.125L14.075 15.05L12 14L8 16V8.00001H5V19H12V21H5ZM14 21V17.925L19.525 12.425C19.675 12.275 19.8417 12.1667 20.025 12.1C20.2083 12.0333 20.3917 12 20.575 12C20.775 12 20.9667 12.0377 21.15 12.113C21.3333 12.1883 21.5 12.3007 21.65 12.45L22.575 13.375C22.7083 13.525 22.8127 13.6917 22.888 13.875C22.9633 14.0583 23.0007 14.2417 23 14.425C22.9993 14.6083 22.966 14.796 22.9 14.988C22.834 15.18 22.7257 15.3507 22.575 15.5L17.075 21H14ZM15.5 19.5H16.45L19.475 16.45L19.025 15.975L18.55 15.525L15.5 18.55V19.5ZM19.025 15.975L18.55 15.525L19.475 16.45L19.025 15.975Z" fill="#005FB1"/>
</svg>
