<svg width="24" height="24" viewBox="0 0 24 24" fill="none" xmlns="http://www.w3.org/2000/svg">
<path fill-rule="evenodd" clip-rule="evenodd" d="M6.75 7.5C6.75 6.37283 7.19777 5.29183 7.9948 4.4948C8.79183 3.69777 9.87283 3.25 11 3.25C12.1272 3.25 13.2082 3.69777 14.0052 4.4948C14.8022 5.29183 15.25 6.37283 15.25 7.5C15.25 8.62717 14.8022 9.70817 14.0052 10.5052C13.2082 11.3022 12.1272 11.75 11 11.75C9.87283 11.75 8.79183 11.3022 7.9948 10.5052C7.19777 9.70817 6.75 8.62717 6.75 7.5ZM11 4.75C10.2707 4.75 9.57118 5.03973 9.05546 5.55546C8.53973 6.07118 8.25 6.77065 8.25 7.5C8.25 8.22935 8.53973 8.92882 9.05546 9.44454C9.57118 9.96027 10.2707 10.25 11 10.25C11.7293 10.25 12.4288 9.96027 12.9445 9.44454C13.4603 8.92882 13.75 8.22935 13.75 7.5C13.75 6.77065 13.4603 6.07118 12.9445 5.55546C12.4288 5.03973 11.7293 4.75 11 4.75ZM3.25 17C3.25 16.0054 3.64509 15.0516 4.34835 14.3483C5.05161 13.6451 6.00544 13.25 7 13.25H7.34C7.52667 13.2507 7.708 13.2793 7.884 13.336L8.75 13.619C10.212 14.0963 11.788 14.0963 13.25 13.619L14.116 13.336C14.291 13.279 14.475 13.25 14.659 13.25H15C15.9946 13.25 16.9484 13.6451 17.6517 14.3483C18.3549 15.0516 18.75 16.0054 18.75 17V18.188C18.75 18.942 18.204 19.584 17.46 19.705C13.1816 20.4034 8.81836 20.4034 4.54 19.705C4.18018 19.6458 3.85305 19.4608 3.61682 19.1831C3.3806 18.9053 3.25061 18.5527 3.25 18.188V17ZM7 14.75C6.40326 14.75 5.83097 14.9871 5.40901 15.409C4.98705 15.831 4.75 16.4033 4.75 17V18.188C4.75 18.206 4.763 18.222 4.781 18.225C8.9 18.897 13.101 18.897 17.219 18.225C17.2275 18.2231 17.2351 18.2184 17.2407 18.2117C17.2463 18.205 17.2496 18.1967 17.25 18.188V17C17.25 16.4033 17.0129 15.831 16.591 15.409C16.169 14.9871 15.5967 14.75 15 14.75H14.66C14.6332 14.7505 14.6067 14.7545 14.581 14.762L13.716 15.045C11.9512 15.6213 10.0488 15.6213 8.284 15.045L7.418 14.762C7.39296 14.7547 7.36708 14.7506 7.341 14.75H7Z" fill="#005FB1" stroke="#005FB1" stroke-width="0.5"/>
<path d="M19.5 6.25C19.6989 6.25 19.8897 6.32902 20.0303 6.46967C20.171 6.61032 20.25 6.80109 20.25 7V8.75H22C22.1989 8.75 22.3897 8.82902 22.5303 8.96967C22.671 9.11032 22.75 9.30109 22.75 9.5C22.75 9.69891 22.671 9.88968 22.5303 10.0303C22.3897 10.171 22.1989 10.25 22 10.25H20.25V12C20.25 12.1989 20.171 12.3897 20.0303 12.5303C19.8897 12.671 19.6989 12.75 19.5 12.75C19.3011 12.75 19.1103 12.671 18.9697 12.5303C18.829 12.3897 18.75 12.1989 18.75 12V10.25H17C16.8011 10.25 16.6103 10.171 16.4697 10.0303C16.329 9.88968 16.25 9.69891 16.25 9.5C16.25 9.30109 16.329 9.11032 16.4697 8.96967C16.6103 8.82902 16.8011 8.75 17 8.75H18.75V7C18.75 6.80109 18.829 6.61032 18.9697 6.46967C19.1103 6.32902 19.3011 6.25 19.5 6.25Z" fill="#005FB1"/>
</svg>
